<?xml version="1.0" standalone="no"?>
<!DOCTYPE svg PUBLIC "-//W3C//DTD SVG 20010904//EN"
 "http://www.w3.org/TR/2001/REC-SVG-20010904/DTD/svg10.dtd">
<svg version="1.0" xmlns="http://www.w3.org/2000/svg"
 width="225.000000pt" height="225.000000pt" viewBox="0 0 225.000000 225.000000"
 preserveAspectRatio="xMidYMid meet">

<g transform="translate(0.000000,225.000000) scale(0.100000,-0.100000)"
fill="#000000" stroke="none">
<path d="M807 2200 c-69 -18 -121 -52 -212 -140 -74 -72 -109 -97 -193 -139
-179 -90 -219 -145 -257 -350 -20 -112 -30 -141 -79 -237 -86 -169 -87 -247
-5 -407 54 -105 66 -142 84 -255 19 -119 59 -207 118 -258 23 -19 86 -58 140
-85 80 -40 118 -68 198 -144 145 -138 215 -157 433 -119 84 14 101 14 182 0
210 -37 281 -17 423 118 79 76 115 102 209 151 177 92 220 150 252 344 18 105
28 136 78 238 l57 117 0 95 0 96 -57 120 c-46 97 -60 139 -73 217 -19 120 -36
168 -80 228 -39 54 -77 81 -196 140 -63 32 -105 64 -175 131 -147 142 -215
164 -409 133 -102 -16 -127 -16 -198 -5 -118 18 -197 22 -240 11z m516 -276
c65 -21 148 -99 178 -166 16 -39 23 -72 23 -125 0 -62 -4 -80 -34 -139 -121
-236 -453 -227 -563 15 -30 64 -30 178 0 242 26 59 84 123 139 155 77 45 156
51 257 18z m-517 -127 c57 -62 69 -157 34 -270 -23 -73 -83 -150 -145 -182
-34 -19 -36 -22 -31 -60 3 -22 8 -83 12 -136 l6 -96 -43 -25 c-24 -15 -45 -25
-46 -24 -2 1 -21 164 -43 362 l-40 359 37 32 c106 91 199 105 259 40z m868
-44 c70 -58 152 -168 207 -278 46 -93 48 -101 32 -112 -10 -7 -23 -16 -29 -21
-5 -5 -20 -15 -32 -21 -20 -10 -23 -8 -37 26 -9 21 -23 49 -32 63 l-17 25 -8
-30 c-5 -17 -11 -79 -15 -140 -9 -177 21 -357 81 -492 l28 -62 -42 -51 c-23
-28 -44 -49 -46 -47 -13 13 -69 168 -89 247 -40 160 -48 237 -42 397 4 127 16
210 42 298 4 15 -10 38 -58 90 l-65 70 27 37 c14 21 31 38 37 38 7 0 32 -17
58 -37z m-1205 -231 c17 -56 17 -61 2 -76 -12 -13 -16 -35 -15 -94 0 -64 6
-89 33 -151 53 -120 57 -252 10 -376 -19 -51 -89 -145 -108 -145 -4 0 -20 27
-36 60 l-29 60 27 28 c40 42 67 110 67 173 0 59 -19 122 -70 233 -60 131 -36
256 64 334 16 12 31 20 33 18 2 -2 12 -31 22 -64z m1110 -358 c0 -201 15 -307
68 -489 20 -66 37 -127 40 -135 5 -19 -61 -85 -76 -76 -12 8 -85 231 -96 294
-8 47 -10 49 -60 25 l-35 -17 0 -85 c0 -47 -3 -137 -7 -199 l-6 -113 -48 -25
c-27 -13 -51 -24 -54 -24 -3 0 -3 134 1 298 6 275 0 405 -22 528 -5 30 -3 33
39 49 25 9 50 14 56 10 6 -3 11 -34 12 -68 0 -79 14 -226 22 -233 3 -3 20 2
38 11 l32 17 -7 163 -7 164 53 40 c29 22 54 40 55 40 1 1 2 -78 2 -175z m-715
50 c-38 -143 -108 -340 -170 -488 -46 -108 -53 -131 -42 -144 7 -8 47 -37 88
-64 41 -27 76 -51 78 -53 5 -5 -48 -95 -55 -95 -29 0 -246 151 -265 183 -3 7
33 91 80 187 94 189 141 318 169 460 l17 90 60 18 c34 10 62 15 64 11 2 -4 -9
-51 -24 -105z m121 4 c30 -15 44 -27 41 -38 -59 -222 -203 -620 -225 -620 -3
0 -21 9 -40 21 -23 14 -31 25 -28 37 3 9 41 121 85 247 44 127 88 263 98 303
10 39 20 72 21 72 1 0 23 -10 48 -22z m255 -77 c0 -65 -1 -69 -25 -75 -40 -10
-102 -78 -135 -149 -33 -69 -60 -203 -60 -294 0 -123 42 -213 101 -213 39 0
49 24 49 115 l0 76 -45 -7 -45 -6 0 50 c0 57 -4 55 113 68 l57 6 0 -186 0
-186 -35 -14 c-204 -86 -320 67 -285 376 20 179 65 297 147 388 42 47 137 120
155 120 5 0 8 -31 8 -69z"/>
<path d="M1119 1807 c-113 -60 -139 -230 -47 -313 100 -91 254 -69 315 45 53
101 3 241 -100 280 -48 19 -120 13 -168 -12z"/>
<path d="M655 1708 c-11 -6 -21 -12 -23 -13 -8 -6 22 -255 30 -255 20 0 67 58
77 96 15 52 14 123 -2 154 -14 28 -51 36 -82 18z"/>
</g>
</svg>
